#!OML:ASF E:\Steps\Project 1\Capture day 1\Session 2\Subject.ASF
:FULLY-SPECIFIED
:DEGREES
275
root -1.13794 17.9386 20.5873 -154.66 -0.793533 180.101
lowerback -25.1323 -1.90426 -9.12384
upperback -0.493003 -0.204744 -0.336942
thorax 13.6108 -0.853 4.74693
lowerneck 1.95951 -8.14131 -2.20565
upperneck 16.3159 -13.5037 5.63902
head 5.14194 -6.98463 1.48927
rclavicle 1.03368e-014 7.15625e-015
rhumerus -40.3822 -15.051 -78.5678
rradius 32.9354
rwrist -3.91986
rhand -7.03984 -54.9442
rfingers 7.12502
rthumb 18.8325 -84.0526
lclavicle 1.03368e-014 7.15625e-015
lhumerus -31.6072 1.81827 78.5604
lradius 23.8161
lwrist -2.43648
lhand -21.812 -12.1604
lfingers 7.12502
lthumb 4.5903 17.7699
rfemur -27.3051 5.61548 22.2815
rtibia 16.8385
rfoot -22.434 -4.53382
rtoes -40.4451
lfemur -26.2864 -10.8599 -19.5595
ltibia 14.6226
lfoot -11.2121 -1.43938
ltoes -27.5979
276
root -1.13669 17.9358 20.5709 -154.64 -0.641056 180.089
lowerback -25.2554 -1.91589 -9.27218
upperback -0.459063 -0.155878 -0.399208
thorax 13.7129 -0.845281 4.77695
lowerneck 1.87245 -8.018 -2.19104
upperneck 16.443 -13.346 5.60988
head 5.18562 -6.90683 1.47837
rclavicle 2.98177e-015 2.78299e-014
rhumerus -40.3713 -14.9596 -78.678
rradius 33.0966
rwrist -3.91868
rhand -6.77528 -55.3933
rfingers 7.12502
rthumb 19.0869 -84.4767
lclavicle 2.98177e-015 2.78299e-014
lhumerus -31.6829 2.03444 78.3582
lradius 23.6572
lwrist -2.59123
lhand -21.9971 -12.2821
lfingers 7.12502
lthumb 4.41161 17.652
rfemur -28.3744 5.82714 22.2231
rtibia 18.9687
rfoot -23.4232 -4.78022
rtoes -41.0718
lfemur -26.3268 -10.813 -19.6041
ltibia 14.8185
lfoot -11.3477 -1.40846
ltoes -27.8892
277
root -1.135 17.9322 20.5526 -154.684 -0.554747 180.071
lowerback -25.2962 -1.90589 -9.36564
upperback -0.422728 -0.0971148 -0.496807
thorax 13.7701 -0.82535 4.73797
lowerneck 1.92741 -8.04003 -2.08046
upperneck 16.3948 -13.3736 5.61233
head 5.15617 -6.91636 1.46535
rclavicle 0 1.35174e-014
rhumerus -40.4023 -14.8838 -78.822
rradius 33.2775
rwrist -4.2201
rhand -6.8889 -55.2013
rfingers 7.12502
rthumb 18.9777 -84.2955
lclavicle 0 1.35174e-014
lhumerus -31.7999 2.20628 78.0836
lradius 23.5667
lwrist -2.7599
lhand -21.8115 -12.2735
lfingers 7.12502
lthumb 4.59075 17.6567
rfemur -29.2633 5.77191 22.2177
rtibia 20.9343
rfoot -24.4055 -4.68209
rtoes -41.1125
lfemur -26.2471 -10.7757 -19.6648
ltibia 14.9376
lfoot -11.4514 -1.35291
ltoes -28.4254
278
root -1.13207 17.926 20.5363 -154.747 -0.546455 180.052
lowerback -25.131 -1.88599 -9.43332
upperback -0.47807 -0.0665816 -0.614945
thorax 13.6069 -0.805344 4.64995
lowerneck 2.12464 -8.2243 -1.78295
upperneck 16.211 -13.5999 5.5256
head 5.0525 -7.02259 1.39921
rclavicle 1.64991e-014 -2.54444e-014
rhumerus -40.5585 -15.0011 -78.8454
rradius 33.4413
rwrist -4.341
rhand -6.94117 -54.734
rfingers 7.12502
rthumb 18.9274 -83.8331
lclavicle 1.64991e-014 -2.54444e-014
lhumerus -31.9733 2.2683 77.7516
lradius 23.3861
lwrist -2.90129
lhand -21.481 -12.4414
lfingers 7.12502
lthumb 4.90988 17.4817
rfemur -30.1441 5.55869 22.2741
rtibia 22.897
rfoot -25.1902 -4.82189
rtoes -42.2256
lfemur -26.1983 -10.7182 -19.7228
ltibia 15.1276
lfoot -11.6121 -1.26286
ltoes -30.0366
279
root -1.12934 17.9211 20.5235 -154.819 -0.503183 180.057
lowerback -24.9084 -1.8877 -9.48899
upperback -0.548763 -0.0809555 -0.691985
thorax 13.4007 -0.803858 4.58706
lowerneck 2.24923 -8.33947 -1.59976
upperneck 16.1271 -13.7454 5.44807
head 4.99555 -7.09378 1.35084
rclavicle -1.03368e-014 1.66979e-014
rhumerus -40.6733 -15.1322 -78.7684
rradius 33.5635
rwrist -4.03054
rhand -6.56179 -55.1891
rfingers 7.12502
rthumb 19.2922 -84.2522
lclavicle -1.03368e-014 1.66979e-014
lhumerus -32.2031 2.50795 77.3975
lradius 23.233
lwrist -3.1256
lhand -21.4708 -12.6781
lfingers 7.12502
lthumb 4.91972 17.2448
rfemur -31.143 5.18316 22.4275
rtibia 25.0374
rfoot -25.7228 -5.22724
rtoes -44.4456
lfemur -26.1877 -10.6901 -19.7413
ltibia 15.3652
lfoot -11.8326 -1.36359
ltoes -29.9146
280
root -1.12751 17.9177 20.5089 -154.926 -0.382981 180.07
lowerback -24.7713 -1.91596 -9.57768
upperback -0.516546 -0.0999349 -0.70836
thorax 13.3664 -0.815086 4.61207
lowerneck 2.05315 -8.25816 -1.74401
upperneck 16.2415 -13.6523 5.53105
head 5.07403 -7.0442 1.3873
rclavicle -8.34896e-015 -4.92986e-014
rhumerus -40.5367 -15.0479 -78.7808
rradius 33.4931
rwrist -4.24243
rhand -7.08359 -55.0198
rfingers 7.12502
rthumb 18.7904 -84.1322
lclavicle -8.34896e-015 -4.92986e-014
lhumerus -32.3937 2.93003 77.0929
lradius 23.2172
lwrist -3.26139
lhand -21.4701 -12.5746
lfingers 7.12502
lthumb 4.92043 17.3482
rfemur -32.1339 4.61783 22.6242
rtibia 27.2144
rfoot -25.9982 -5.68069
rtoes -47.4433
lfemur -26.0966 -10.7308 -19.7567
ltibia 15.5563
lfoot -12.0951 -1.23147
ltoes -29.514
281
root -1.12488 17.9135 20.4966 -155.02 -0.274192 179.939
lowerback -24.5319 -1.99712 -9.82515
upperback -0.523341 -0.161932 -0.740501
thorax 13.236 -0.852023 4.69427
lowerneck 1.63581 -7.944 -2.10976
upperneck 16.6218 -13.282 5.69348
head 5.27821 -6.86201 1.47639
rclavicle 1.05356e-014 -2.62396e-014
rhumerus -40.4405 -14.9267 -78.7768
rradius 33.5333
rwrist -4.23663
rhand -7.01271 -55.0443
rfingers 7.12502
rthumb 18.8586 -84.1501
lclavicle 1.05356e-014 -2.62396e-014
lhumerus -32.721 3.16267 76.8706
lradius 23.2984
lwrist -3.2457
lhand -21.4896 -12.2531
lfingers 7.12502
lthumb 4.90158 17.6702
rfemur -33.1596 4.05791 22.6127
rtibia 29.3293
rfoot -26.1752 -5.66946
rtoes -48.5905
lfemur -26.0281 -10.6753 -19.9743
ltibia 15.7806
lfoot -12.1714 -1.41833
ltoes -28.2385
282
root -1.1266 17.9065 20.4796 -155.114 -0.0732387 179.746
lowerback -25.6832 -2.10771 -10.0215
upperback 0.615298 0.0194058 -0.746366
thorax 14.4537 -0.832872 4.64282
lowerneck 1.23195 -7.88387 -2.24659
upperneck 16.1442 -13.0717 5.97318
head 5.213 -6.71162 1.5858
rclavicle -1.59028e-015 -2.38542e-014
rhumerus -39.1153 -15.3138 -79.0152
rradius 33.4727
rwrist -4.03188
rhand -7.02385 -54.7836
rfingers 7.12502
rthumb 18.8479 -83.8904
lclavicle -1.59028e-015 -2.38542e-014
lhumerus -31.6533 3.47299 76.7901
lradius 23.0862
lwrist -3.30726
lhand -21.6954 -12.0006
lfingers 7.12502
lthumb 4.70292 17.9272
rfemur -34.2915 3.50686 22.4542
rtibia 31.5367
rfoot -26.24 -5.78728
rtoes -48.4076
lfemur -25.84 -10.6005 -20.3222
ltibia 15.8103
lfoot -12.2957 -1.34162
ltoes -28.8938
283
root -1.12694 17.899 20.462 -155.161 0.0368365 179.74
lowerback -25.6002 -2.11869 -10.0922
upperback 0.552858 0.00929028 -0.790613
thorax 14.3394 -0.836872 4.62824
lowerneck 1.48263 -7.96296 -2.16113
upperneck 16.159 -13.1933 5.84947
head 5.16854 -6.78713 1.54173
rclavicle 8.34896e-015 -1.03368e-014
rhumerus -39.3135 -15.2111 -79.024
rradius 33.7528
rwrist -4.1125
rhand -7.19007 -54.9433
rfingers 7.12502
rthumb 18.688 -84.0656
lclavicle 8.34896e-015 -1.03368e-014
lhumerus -31.9029 3.5084 76.5861
lradius 22.8922
lwrist -3.40196
lhand -21.8565 -12.0907
lfingers 7.12502
lthumb 4.54734 17.8405
rfemur -35.4602 2.91237 22.5721
rtibia 33.6868
rfoot -26.6154 -5.96139
rtoes -49.3836
lfemur -25.7207 -10.5746 -20.3844
ltibia 15.8425
lfoot -12.3857 -1.21347
ltoes -29.3593
284
root -1.12348 17.8922 20.4471 -155.187 0.00311582 179.881
lowerback -25.5408 -2.18083 -10.0424
upperback 0.546575 -0.0984022 -0.755032
thorax 14.3203 -0.880887 4.60224
lowerneck 1.71804 -8.07149 -2.11015
upperneck 15.8615 -13.3126 5.9128
head 5.04387 -6.84661 1.56752
rclavicle 7.15625e-015 -1.90833e-014
rhumerus -39.3897 -14.9945 -79.0924
rradius 34.1874
rwrist -4.24665
rhand -7.03038 -56.0071
rfingers 7.12502
rthumb 18.8416 -85.1146
lclavicle 7.15625e-015 -1.90833e-014
lhumerus -32.0832 3.47768 76.4134
lradius 22.7131
lwrist -3.40788
lhand -21.8642 -12.6618
lfingers 7.12502
lthumb 4.53992 17.2696
rfemur -36.5947 2.35946 22.9381
rtibia 35.6527
rfoot -26.4617 -7.08281
rtoes -50.6079
lfemur -25.7526 -10.6543 -20.1776
ltibia 16.0571
lfoot -12.5684 -1.0644
ltoes -29.3481
